# xmcd
#
# Track frame offsets:
#	150
#	14961
#	29787
#	45542
#	56379
#	66994
#	87374
#	102306
#	119516
#	136199
#	154357
#	166292
#	184987
#	203031
#	220809
#	233386
#	247440
#	264639
#	279138
#
# Disc length: 3877 seconds
#
# Revision: 0
# Processed by: cddbd v1.5.2PL0 Copyright (c) Steve Scherf et al.
# Submitted via: EasyCDDAExtractor 16.0.6.1
#
DISCID=1e0f2313
DTITLE=The Musican Series
DYEAR=1900
DGENRE=Country
TTITLE0=정미조 - 우리는 철새
TTITLE1=정미조 - 아무도 그것이
TTITLE2=정미조 - 미워한말 아닌데
TTITLE3=정미조 - 행복이 머물때
TTITLE4=정미조 - 즐거운 일요일
TTITLE5=정미조 - 바다의 속삭임
TTITLE6=정미조 - 행복했을까
TTITLE7=정미조 - 조약돌
TTITLE8=정미조 - 나 하나의 사랑
TTITLE9=정미조 - 꿈은 사라지고
TTITLE10=정미조 - 그때 그 자리
TTITLE11=정미조 - 가는길
TTITLE12=정미조 - 첫사랑
TTITLE13=정미조 - 길을 걸으며
TTITLE14=정미조 - 얼굴
TTITLE15=최양숙 - 기다리겠어요
TTITLE16=최양숙 - 세노야
TTITLE17=최양숙 - 눈이 내리네
TTITLE18=최양숙 - 가을 편지
EXTD=
EXTT0=
EXTT1=
EXTT2=
EXTT3=
EXTT4=
EXTT5=
EXTT6=
EXTT7=
EXTT8=
EXTT9=
EXTT10=
EXTT11=
EXTT12=
EXTT13=
EXTT14=
EXTT15=
EXTT16=
EXTT17=
EXTT18=
PLAYORDER=
